{
.appVersion = "1286";
DisplayStrings = (
"black lives matter=",
"?",
G,
"//",
"//",
"/backslash",
"=",
"%",
"//",
"/guilsinglright",
"/guilsinglleft",
"",
_,
"-",
"/endash",
"/emdash",
")",
"3",
"}",
"{",
"9",
"/quotesinglbase",
"/quotedblbase",
",",
";",
":",
"/numbersign.001",
"#",
"/numbersign.001"
);
customParameters = (
{
name = Axes;
value = (
{
Name = Width;
Tag = wdth;
}
);
}
);
date = "2020-06-10 17:41:39 +0000";
familyName = BLM;
fontMaster = (
{
ascender = 800;
capHeight = 700;
descender = -200;
iconName = SemiBold;
id = "F308DFDC-97C1-4BE3-8956-0141BA9DEEC1";
weightValue = 400;
xHeight = 500;
}
);
glyphs = (
{
glyphname = A;
lastChange = "2020-06-14 10:42:16 +0000";
layers = (
{
layerId = "F308DFDC-97C1-4BE3-8956-0141BA9DEEC1";
paths = (
{
closed = 1;
nodes = (
"375 0 LINE",
"273 700 LINE",
"127 700 LINE",
"25 1 LINE",
"136 0 LINE",
"150 116 LINE",
"249 116 LINE",
"264 0 LINE"
);
},
{
closed = 1;
nodes = (
"200 511 LINE",
"235 234 LINE",
"165 234 LINE"
);
}
);
width = 400;
}
);
unicode = "0041,0061";
},
{
glyphname = B;
lastChange = "2020-06-14 10:48:52 +0000";
layers = (
{
layerId = "F308DFDC-97C1-4BE3-8956-0141BA9DEEC1";
paths = (
{
closed = 1;
nodes = (
"351 386 OFFCURVE",
"375 438 OFFCURVE",
"375 496 CURVE",
"375 608 OFFCURVE",
"284 700 OFFCURVE",
"172 700 CURVE",
"25 700 LINE",
"25 0 LINE",
"171 0 LINE",
"284 0 OFFCURVE",
"375 91 OFFCURVE",
"375 203 CURVE",
"375 260 OFFCURVE",
"351 312 OFFCURVE",
"313 350 CURVE"
);
},
{
closed = 1;
nodes = (
"172 582 LINE",
"220 582 OFFCURVE",
"259 543 OFFCURVE",
"259 496 CURVE",
"259 448 OFFCURVE",
"220 407 OFFCURVE",
"172 407 CURVE",
"143 407 LINE",
"143 582 LINE"
);
},
{
closed = 1;
nodes = (
"143 116 LINE",
"143 291 LINE",
"172 291 LINE",
"220 291 OFFCURVE",
"259 252 OFFCURVE",
"259 203 CURVE",
"259 155 OFFCURVE",
"220 116 OFFCURVE",
"171 116 CURVE"
);
}
);
width = 400;
}
);
unicode = "0042,0062";
},
{
glyphname = C;
lastChange = "2020-06-14 10:42:16 +0000";
layers = (
{
layerId = "F308DFDC-97C1-4BE3-8956-0141BA9DEEC1";
paths = (
{
closed = 1;
nodes = (
"259 175 LINE",
"259 143 OFFCURVE",
"232 116 OFFCURVE",
"200 116 CURVE",
"166 116 OFFCURVE",
"140 143 OFFCURVE",
"140 175 CURVE",
"140 524 LINE",
"140 556 OFFCURVE",
"166 582 OFFCURVE",
"200 582 CURVE",
"232 582 OFFCURVE",
"259 556 OFFCURVE",
"259 524 CURVE",
"259 407 LINE",
"375 407 LINE",
"375 407 OFFCURVE",
"375 556 OFFCURVE",
"375 560 CURVE",
"375 626 OFFCURVE",
"330 682 OFFCURVE",
"270 700 CURVE",
"130 700 LINE",
"68 682 OFFCURVE",
"25 626 OFFCURVE",
"25 560 CURVE",
"25 140 LINE",
"25 73 OFFCURVE",
"70 17 OFFCURVE",
"131 0 CURVE",
"267 0 LINE",
"329 17 OFFCURVE",
"375 73 OFFCURVE",
"375 140 CURVE",
"375 143 OFFCURVE",
"375 291 OFFCURVE",
"375 291 CURVE",
"259 291 LINE"
);
}
);
width = 400;
}
);
unicode = "0043,0063";
},
{
glyphname = D;
lastChange = "2020-06-14 10:42:16 +0000";
layers = (
{
layerId = "F308DFDC-97C1-4BE3-8956-0141BA9DEEC1";
paths = (
{
closed = 1;
nodes = (
"25 0 LINE",
"270 0 LINE",
"332 18 OFFCURVE",
"375 74 OFFCURVE",
"375 140 CURVE",
"375 143 OFFCURVE",
"375 556 OFFCURVE",
"375 560 CURVE",
"375 626 OFFCURVE",
"332 682 OFFCURVE",
"270 700 CURVE",
"25 700 LINE"
);
},
{
closed = 1;
nodes = (
"141 582 OFFCURVE",
"190 582 OFFCURVE",
"200 582 CURVE",
"232 582 OFFCURVE",
"259 557 OFFCURVE",
"259 524 CURVE",
"259 175 LINE",
"259 143 OFFCURVE",
"232 116 OFFCURVE",
"200 116 CURVE",
"190 116 OFFCURVE",
"141 116 OFFCURVE",
"141 116 CURVE",
"141 582 LINE"
);
}
);
width = 400;
}
);
unicode = "0044,0064";
},
{
glyphname = E;
lastChange = "2020-06-14 10:42:16 +0000";
layers = (
{
layerId = "F308DFDC-97C1-4BE3-8956-0141BA9DEEC1";
paths = (
{
closed = 1;
nodes = (
"375 700 LINE",
"25 700 LINE",
"25 0 LINE",
"375 0 LINE",
"375 116 LINE",
"142 116 LINE",
"142 291 LINE",
"375 291 LINE",
"375 409 LINE",
"142 409 LINE",
"142 582 LINE",
"375 582 LINE"
);
}
);
width = 400;
}
);
unicode = "0045,0065";
},
{
glyphname = F;
lastChange = "2020-06-14 10:42:16 +0000";
layers = (
{
layerId = "F308DFDC-97C1-4BE3-8956-0141BA9DEEC1";
paths = (
{
closed = 1;
nodes = (
"375 700 LINE",
"25 700 LINE",
"25 0 LINE",
"141 0 LINE",
"141 291 LINE",
"375 291 LINE",
"375 409 LINE",
"141 409 LINE",
"141 582 LINE",
"375 582 LINE"
);
}
);
width = 400;
}
);
unicode = "0046,0066";
},
{
glyphname = G;
lastChange = "2020-06-14 10:42:16 +0000";
layers = (
{
layerId = "F308DFDC-97C1-4BE3-8956-0141BA9DEEC1";
paths = (
{
closed = 1;
nodes = (
"200 176 LINE",
"259 176 LINE",
"259 143 OFFCURVE",
"232 117 OFFCURVE",
"200 117 CURVE",
"167 117 OFFCURVE",
"141 144 OFFCURVE",
"141 176 CURVE",
"141 525 LINE",
"141 557 OFFCURVE",
"167 584 OFFCURVE",
"200 584 CURVE",
"232 584 OFFCURVE",
"259 557 OFFCURVE",
"259 525 CURVE",
"259 409 LINE",
"375 409 LINE",
"375 409 OFFCURVE",
"375 557 OFFCURVE",
"375 560 CURVE",
"375 627 OFFCURVE",
"331 683 OFFCURVE",
"270 700 CURVE",
"130 700 LINE",
"69 683 OFFCURVE",
"25 627 OFFCURVE",
"25 560 CURVE",
"25 141 LINE",
"25 74 OFFCURVE",
"70 17 OFFCURVE",
"132 0 CURVE",
"268 0 LINE",
"330 17 OFFCURVE",
"375 74 OFFCURVE",
"375 141 CURVE",
"375 144 OFFCURVE",
"375 293 OFFCURVE",
"375 293 CURVE",
"200 293 LINE"
);
}
);
width = 400;
}
);
unicode = "0047,0067";
},
{
glyphname = H;
lastChange = "2020-06-14 10:42:16 +0000";
layers = (
{
layerId = "F308DFDC-97C1-4BE3-8956-0141BA9DEEC1";
paths = (
{
closed = 1;
nodes = (
"258 409 LINE",
"141 409 LINE",
"141 700 LINE",
"25 700 LINE",
"25 0 LINE",
"141 0 LINE",
"141 292 LINE",
"258 292 LINE",
"258 0 LINE",
"375 0 LINE",
"375 700 LINE",
"258 700 LINE"
);
}
);
width = 400;
}
);
unicode = "0048,0068";
},
{
glyphname = I;
lastChange = "2020-06-14 10:42:16 +0000";
layers = (
{
layerId = "F308DFDC-97C1-4BE3-8956-0141BA9DEEC1";
paths = (
{
closed = 1;
nodes = (
"375 700 LINE",
"25 700 LINE",
"25 584 LINE",
"142 584 LINE",
"142 117 LINE",
"25 117 LINE",
"25 0 LINE",
"375 0 LINE",
"375 117 LINE",
"258 117 LINE",
"258 584 LINE",
"375 584 LINE"
);
}
);
width = 400;
}
);
unicode = "0049,0069";
},
{
glyphname = J;
lastChange = "2020-06-14 10:42:16 +0000";
layers = (
{
layerId = "F308DFDC-97C1-4BE3-8956-0141BA9DEEC1";
paths = (
{
closed = 1;
nodes = (
"142 583 LINE",
"259 583 LINE",
"259 176 LINE",
"259 143 OFFCURVE",
"233 117 OFFCURVE",
"200 117 CURVE",
"167 117 OFFCURVE",
"141 143 OFFCURVE",
"141 176 CURVE",
"141 292 LINE",
"25 292 LINE",
"25 292 OFFCURVE",
"25 143 OFFCURVE",
"25 140 CURVE",
"25 74 OFFCURVE",
"69 18 OFFCURVE",
"130 0 CURVE",
"270 0 LINE",
"331 18 OFFCURVE",
"375 74 OFFCURVE",
"375 140 CURVE",
"375 700 LINE",
"142 700 LINE"
);
}
);
width = 400;
}
);
unicode = "004A,006A";
},
{
glyphname = K;
lastChange = "2020-06-14 10:42:16 +0000";
layers = (
{
layerId = "F308DFDC-97C1-4BE3-8956-0141BA9DEEC1";
paths = (
{
closed = 1;
nodes = (
"244 700 LINE",
"142 481 LINE",
"142 700 LINE",
"25 700 LINE",
"25 0 LINE",
"142 0 LINE",
"142 219 LINE",
"244 0 LINE",
"375 0 LINE",
"211 350 LINE",
"375 700 LINE"
);
}
);
width = 400;
}
);
unicode = "004B,006B";
},
{
glyphname = L;
lastChange = "2020-06-14 10:42:16 +0000";
layers = (
{
layerId = "F308DFDC-97C1-4BE3-8956-0141BA9DEEC1";
paths = (
{
closed = 1;
nodes = (
"141 700 LINE",
"25 700 LINE",
"25 0 LINE",
"375 0 LINE",
"375 117 LINE",
"141 117 LINE"
);
}
);
width = 400;
}
);
unicode = "004C,006C";
},
{
glyphname = M;
lastChange = "2020-06-14 10:42:16 +0000";
layers = (
{
layerId = "F308DFDC-97C1-4BE3-8956-0141BA9DEEC1";
paths = (
{
closed = 1;
nodes = (
"200 408 LINE",
"142 700 LINE",
"25 700 LINE",
"25 0 LINE",
"142 0 LINE",
"142 351 LINE",
"200 117 LINE",
"258 351 LINE",
"258 0 LINE",
"375 0 LINE",
"375 700 LINE",
"258 700 LINE"
);
}
);
width = 400;
}
);
unicode = "004D,006D";
},
{
glyphname = N;
lastChange = "2020-06-14 10:42:16 +0000";
layers = (
{
layerId = "F308DFDC-97C1-4BE3-8956-0141BA9DEEC1";
paths = (
{
closed = 1;
nodes = (
"259 348 LINE",
"141 700 LINE",
"25 700 LINE",
"25 0 LINE",
"141 0 LINE",
"141 352 LINE",
"259 0 LINE",
"375 0 LINE",
"375 700 LINE",
"259 700 LINE"
);
}
);
width = 400;
}
);
unicode = "004E,006E";
},
{
glyphname = O;
lastChange = "2020-06-14 10:42:16 +0000";
layers = (
{
layerId = "F308DFDC-97C1-4BE3-8956-0141BA9DEEC1";
paths = (
{
closed = 1;
nodes = (
"375 626 OFFCURVE",
"331 682 OFFCURVE",
"270 700 CURVE",
"130 700 LINE",
"69 682 OFFCURVE",
"25 626 OFFCURVE",
"25 560 CURVE",
"25 141 LINE",
"25 73 OFFCURVE",
"70 17 OFFCURVE",
"132 0 CURVE",
"268 0 LINE",
"330 17 OFFCURVE",
"375 73 OFFCURVE",
"375 141 CURVE",
"375 143 OFFCURVE",
"375 558 OFFCURVE",
"375 560 CURVE"
);
},
{
closed = 1;
nodes = (
"259 143 OFFCURVE",
"232 117 OFFCURVE",
"200 117 CURVE",
"167 117 OFFCURVE",
"141 143 OFFCURVE",
"141 176 CURVE",
"141 524 LINE",
"141 557 OFFCURVE",
"167 583 OFFCURVE",
"200 583 CURVE",
"232 583 OFFCURVE",
"259 557 OFFCURVE",
"259 524 CURVE",
"259 176 LINE"
);
}
);
width = 400;
}
);
unicode = "004F,006F";
},
{
glyphname = P;
lastChange = "2020-06-14 10:42:16 +0000";
layers = (
{
layerId = "F308DFDC-97C1-4BE3-8956-0141BA9DEEC1";
paths = (
{
closed = 1;
nodes = (
"25 700 LINE",
"25 0 LINE",
"142 0 LINE",
"142 292 LINE",
"171 292 LINE",
"284 292 OFFCURVE",
"375 383 OFFCURVE",
"375 496 CURVE",
"375 609 OFFCURVE",
"284 700 OFFCURVE",
"171 700 CURVE"
);
},
{
closed = 1;
nodes = (
"142 408 LINE",
"142 583 LINE",
"171 583 LINE",
"219 583 OFFCURVE",
"258 544 OFFCURVE",
"258 496 CURVE",
"258 448 OFFCURVE",
"219 408 OFFCURVE",
"171 408 CURVE"
);
}
);
width = 400;
}
);
unicode = "0050,0070";
},
{
glyphname = Q;
lastChange = "2020-06-14 10:42:16 +0000";
layers = (
{
layerId = "F308DFDC-97C1-4BE3-8956-0141BA9DEEC1";
paths = (
{
closed = 1;
nodes = (
"130 700 LINE",
"69 682 OFFCURVE",
"25 626 OFFCURVE",
"25 560 CURVE",
"25 141 LINE",
"25 73 OFFCURVE",
"70 17 OFFCURVE",
"132 0 CURVE",
"268 0 LINE",
"294 7 OFFCURVE",
"317 21 OFFCURVE",
"335 40 CURVE",
"375 0 LINE",
"375 141 LINE",
"375 141 OFFCURVE",
"375 154 OFFCURVE",
"375 175 CURVE",
"375 275 OFFCURVE",
"375 558 OFFCURVE",
"375 560 CURVE",
"375 626 OFFCURVE",
"330 682 OFFCURVE",
"270 700 CURVE"
);
},
{
closed = 1;
nodes = (
"200 176 LINE",
"241 134 LINE",
"231 124 OFFCURVE",
"216 117 OFFCURVE",
"200 117 CURVE",
"167 117 OFFCURVE",
"141 143 OFFCURVE",
"141 176 CURVE",
"141 524 LINE",
"141 557 OFFCURVE",
"167 583 OFFCURVE",
"200 583 CURVE",
"232 583 OFFCURVE",
"258 557 OFFCURVE",
"258 524 CURVE",
"258 291 LINE",
"200 349 LINE"
);
}
);
width = 400;
}
);
unicode = "0051,0071";
},
{
glyphname = R;
lastChange = "2020-06-14 10:42:16 +0000";
layers = (
{
layerId = "F308DFDC-97C1-4BE3-8956-0141BA9DEEC1";
paths = (
{
closed = 1;
nodes = (
"375 609 OFFCURVE",
"284 700 OFFCURVE",
"171 700 CURVE",
"25 700 LINE",
"25 1 LINE",
"142 1 LINE",
"142 292 LINE",
"252 0 LINE",
"375 0 LINE",
"257 311 LINE",
"327 344 OFFCURVE",
"375 414 OFFCURVE",
"375 496 CURVE"
);
},
{
closed = 1;
nodes = (
"171 583 LINE",
"219 583 OFFCURVE",
"258 544 OFFCURVE",
"258 496 CURVE",
"258 448 OFFCURVE",
"219 408 OFFCURVE",
"171 408 CURVE",
"142 408 LINE",
"142 583 LINE"
);
}
);
width = 400;
}
);
unicode = "0052,0072";
},
{
glyphname = S;
lastChange = "2020-06-14 10:42:16 +0000";
layers = (
{
layerId = "F308DFDC-97C1-4BE3-8956-0141BA9DEEC1";
paths = (
{
closed = 1;
nodes = (
"375 260 OFFCURVE",
"306 326 OFFCURVE",
"306 326 CURVE",
"160 472 LINE",
"153 479 OFFCURVE",
"141 494 OFFCURVE",
"141 512 CURVE",
"141 512 LINE",
"141 528 LINE",
"143 558 OFFCURVE",
"169 583 OFFCURVE",
"200 583 CURVE",
"232 583 OFFCURVE",
"258 557 OFFCURVE",
"258 524 CURVE",
"258 437 LINE",
"375 437 LINE",
"375 437 OFFCURVE",
"375 556 OFFCURVE",
"375 559 CURVE",
"375 627 OFFCURVE",
"330 683 OFFCURVE",
"268 700 CURVE",
"132 700 LINE",
"70 683 OFFCURVE",
"25 627 OFFCURVE",
"25 559 CURVE",
"25 559 OFFCURVE",
"25 551 OFFCURVE",
"25 496 CURVE",
"25 440 OFFCURVE",
"93 374 OFFCURVE",
"93 374 CURVE",
"240 228 LINE",
"246 221 OFFCURVE",
"258 206 OFFCURVE",
"258 188 CURVE",
"258 188 LINE",
"258 172 LINE",
"256 142 OFFCURVE",
"231 117 OFFCURVE",
"200 117 CURVE",
"167 117 OFFCURVE",
"141 143 OFFCURVE",
"141 176 CURVE",
"141 263 LINE",
"25 263 LINE",
"25 263 OFFCURVE",
"25 144 OFFCURVE",
"25 141 CURVE",
"25 73 OFFCURVE",
"70 17 OFFCURVE",
"132 0 CURVE",
"268 0 LINE",
"330 17 OFFCURVE",
"375 73 OFFCURVE",
"375 141 CURVE",
"375 141 OFFCURVE",
"375 149 OFFCURVE",
"375 204 CURVE"
);
}
);
width = 400;
}
);
unicode = "0053,0073";
},
{
glyphname = T;
lastChange = "2020-06-14 10:42:16 +0000";
layers = (
{
layerId = "F308DFDC-97C1-4BE3-8956-0141BA9DEEC1";
paths = (
{
closed = 1;
nodes = (
"25 700 LINE",
"25 583 LINE",
"142 583 LINE",
"142 0 LINE",
"259 0 LINE",
"259 583 LINE",
"375 583 LINE",
"375 700 LINE"
);
}
);
width = 400;
}
);
unicode = "0054,0074";
},
{
glyphname = U;
lastChange = "2020-06-14 10:42:16 +0000";
layers = (
{
layerId = "F308DFDC-97C1-4BE3-8956-0141BA9DEEC1";
paths = (
{
closed = 1;
nodes = (
"259 176 LINE",
"259 143 OFFCURVE",
"233 117 OFFCURVE",
"200 117 CURVE",
"168 117 OFFCURVE",
"141 143 OFFCURVE",
"141 176 CURVE",
"141 700 LINE",
"25 700 LINE",
"25 141 LINE",
"25 73 OFFCURVE",
"71 17 OFFCURVE",
"132 0 CURVE",
"269 0 LINE",
"330 17 OFFCURVE",
"376 73 OFFCURVE",
"376 141 CURVE",
"376 144 OFFCURVE",
"375 700 OFFCURVE",
"375 700 CURVE",
"259 700 LINE"
);
}
);
width = 400;
}
);
unicode = "0055,0075";
},
{
glyphname = V;
lastChange = "2020-06-14 10:42:16 +0000";
layers = (
{
layerId = "F308DFDC-97C1-4BE3-8956-0141BA9DEEC1";
paths = (
{
closed = 1;
nodes = (
"201 273 LINE",
"148 700 LINE",
"25 699 LINE",
"142 0 LINE",
"258 0 LINE",
"375 700 LINE",
"258 700 LINE"
);
}
);
width = 400;
}
);
unicode = "0056,0076";
},
{
glyphname = W;
lastChange = "2020-06-14 10:42:16 +0000";
layers = (
{
layerId = "F308DFDC-97C1-4BE3-8956-0141BA9DEEC1";
paths = (
{
closed = 1;
nodes = (
"200 292 LINE",
"258 0 LINE",
"375 0 LINE",
"375 700 LINE",
"258 700 LINE",
"258 349 LINE",
"200 583 LINE",
"141 349 LINE",
"141 700 LINE",
"25 700 LINE",
"25 0 LINE",
"141 0 LINE"
);
}
);
width = 400;
}
);
unicode = "0057,0077";
},
{
glyphname = X;
lastChange = "2020-06-14 10:42:16 +0000";
layers = (
{
layerId = "F308DFDC-97C1-4BE3-8956-0141BA9DEEC1";
paths = (
{
closed = 1;
nodes = (
"244 700 LINE",
"200 559 LINE",
"156 700 LINE",
"25 700 LINE",
"135 350 LINE",
"25 0 LINE",
"156 0 LINE",
"200 141 LINE",
"244 0 LINE",
"375 0 LINE",
"265 350 LINE",
"375 700 LINE"
);
}
);
width = 400;
}
);
unicode = "0058,0078";
},
{
glyphname = Y;
lastChange = "2020-06-14 10:42:16 +0000";
layers = (
{
layerId = "F308DFDC-97C1-4BE3-8956-0141BA9DEEC1";
paths = (
{
closed = 1;
nodes = (
"244 700 LINE",
"199 558 LINE",
"155 700 LINE",
"25 700 LINE",
"134 348 LINE",
"25 0 LINE",
"155 0 LINE",
"375 700 LINE"
);
}
);
width = 400;
}
);
unicode = "0059,0079";
},
{
glyphname = Z;
lastChange = "2020-06-14 10:42:16 +0000";
layers = (
{
layerId = "F308DFDC-97C1-4BE3-8956-0141BA9DEEC1";
paths = (
{
closed = 1;
nodes = (
"25 700 LINE",
"25 583 LINE",
"244 583 LINE",
"25 117 LINE",
"25 0 LINE",
"375 0 LINE",
"375 117 LINE",
"155 117 LINE",
"375 583 LINE",
"375 700 LINE"
);
}
);
width = 400;
}
);
unicode = "005A,007A";
},
{
glyphname = zero;
lastChange = "2020-06-10 19:13:57 +0000";
layers = (
{
layerId = "F308DFDC-97C1-4BE3-8956-0141BA9DEEC1";
paths = (
{
closed = 1;
nodes = (
"130 700 LINE",
"70 682 OFFCURVE",
"25 626 OFFCURVE",
"25 560 CURVE",
"25 141 LINE",
"25 73 OFFCURVE",
"71 17 OFFCURVE",
"132 0 CURVE",
"269 0 LINE",
"330 17 OFFCURVE",
"376 73 OFFCURVE",
"376 141 CURVE",
"376 143 OFFCURVE",
"376 558 OFFCURVE",
"376 560 CURVE",
"376 626 OFFCURVE",
"331 682 OFFCURVE",
"271 700 CURVE"
);
},
{
closed = 1;
nodes = (
"233 583 OFFCURVE",
"259 557 OFFCURVE",
"259 524 CURVE",
"259 349 LINE",
"142 525 LINE",
"141 525 LINE",
"142 557 OFFCURVE",
"168 583 OFFCURVE",
"200 583 CURVE"
);
},
{
closed = 1;
nodes = (
"168 117 OFFCURVE",
"141 143 OFFCURVE",
"141 176 CURVE",
"141 352 LINE",
"259 175 LINE",
"259 143 OFFCURVE",
"233 117 OFFCURVE",
"200 117 CURVE"
);
}
);
width = 401;
}
);
unicode = 0030;
},
{
glyphname = one;
lastChange = "2020-06-10 19:14:10 +0000";
layers = (
{
layerId = "F308DFDC-97C1-4BE3-8956-0141BA9DEEC1";
paths = (
{
closed = 1;
nodes = (
"259 700 LINE",
"25 700 LINE",
"25 583 LINE",
"142 583 LINE",
"142 117 LINE",
"25 117 LINE",
"25 0 LINE",
"375 0 LINE",
"375 117 LINE",
"259 117 LINE"
);
}
);
width = 400;
}
);
unicode = 0031;
},
{
glyphname = two;
lastChange = "2020-06-10 19:14:37 +0000";
layers = (
{
layerId = "F308DFDC-97C1-4BE3-8956-0141BA9DEEC1";
paths = (
{
closed = 1;
nodes = (
"142 176 LINE",
"142 189 LINE",
"142 189 LINE",
"142 206 OFFCURVE",
"154 222 OFFCURVE",
"161 229 CURVE",
"307 375 LINE",
"307 375 OFFCURVE",
"375 441 OFFCURVE",
"375 496 CURVE",
"375 552 OFFCURVE",
"375 560 OFFCURVE",
"375 560 CURVE",
"375 627 OFFCURVE",
"330 683 OFFCURVE",
"268 700 CURVE",
"132 700 LINE",
"71 683 OFFCURVE",
"25 627 OFFCURVE",
"25 560 CURVE",
"25 557 OFFCURVE",
"26 437 OFFCURVE",
"26 437 CURVE",
"142 437 LINE",
"142 524 LINE",
"142 557 OFFCURVE",
"168 583 OFFCURVE",
"200 583 CURVE",
"231 583 OFFCURVE",
"257 559 OFFCURVE",
"259 528 CURVE",
"259 512 LINE",
"259 512 LINE",
"259 495 OFFCURVE",
"247 479 OFFCURVE",
"240 472 CURVE",
"94 327 LINE",
"94 327 OFFCURVE",
"26 260 OFFCURVE",
"26 205 CURVE",
"26 150 OFFCURVE",
"26 0 OFFCURVE",
"26 0 CURVE",
"375 0 LINE",
"375 117 LINE",
"142 117 LINE"
);
}
);
width = 400;
}
);
unicode = 0032;
},
{
glyphname = three;
lastChange = "2020-06-10 19:14:54 +0000";
layers = (
{
layerId = "F308DFDC-97C1-4BE3-8956-0141BA9DEEC1";
paths = (
{
closed = 1;
nodes = (
"375 627 OFFCURVE",
"330 683 OFFCURVE",
"268 700 CURVE",
"132 700 LINE",
"71 683 OFFCURVE",
"25 627 OFFCURVE",
"25 560 CURVE",
"25 559 OFFCURVE",
"25 467 OFFCURVE",
"25 467 CURVE",
"142 467 LINE",
"142 530 LINE",
"145 560 OFFCURVE",
"170 583 OFFCURVE",
"200 583 CURVE",
"233 583 OFFCURVE",
"259 557 OFFCURVE",
"259 524 CURVE",
"259 467 LINE",
"259 435 OFFCURVE",
"232 408 OFFCURVE",
"200 408 CURVE",
"141 408 LINE",
"141 292 LINE",
"200 292 LINE",
"232 292 OFFCURVE",
"258 266 OFFCURVE",
"258 233 CURVE",
"258 176 LINE",
"258 143 OFFCURVE",
"232 117 OFFCURVE",
"200 117 CURVE",
"169 117 OFFCURVE",
"144 141 OFFCURVE",
"142 171 CURVE",
"142 234 LINE",
"25 234 LINE",
"25 234 OFFCURVE",
"25 141 OFFCURVE",
"25 141 CURVE",
"25 74 OFFCURVE",
"70 17 OFFCURVE",
"132 0 CURVE",
"268 0 LINE",
"329 17 OFFCURVE",
"375 74 OFFCURVE",
"375 141 CURVE",
"375 141 OFFCURVE",
"375 265 OFFCURVE",
"375 269 CURVE",
"375 299 OFFCURVE",
"365 327 OFFCURVE",
"350 350 CURVE",
"366 373 OFFCURVE",
"375 401 OFFCURVE",
"375 432 CURVE",
"375 435 OFFCURVE",
"375 560 OFFCURVE",
"375 560 CURVE"
);
}
);
width = 400;
}
);
unicode = 0033;
},
{
glyphname = four;
lastChange = "2020-06-10 19:15:03 +0000";
layers = (
{
layerId = "F308DFDC-97C1-4BE3-8956-0141BA9DEEC1";
paths = (
{
closed = 1;
nodes = (
"259 263 LINE",
"142 263 LINE",
"142 700 LINE",
"25 700 LINE",
"25 117 LINE",
"259 117 LINE",
"259 0 LINE",
"375 0 LINE",
"375 700 LINE",
"259 700 LINE"
);
}
);
width = 400;
}
);
unicode = 0034;
},
{
glyphname = five;
lastChange = "2020-06-10 19:15:13 +0000";
layers = (
{
layerId = "F308DFDC-97C1-4BE3-8956-0141BA9DEEC1";
paths = (
{
closed = 1;
nodes = (
"141 409 LINE",
"141 583 LINE",
"375 583 LINE",
"375 700 LINE",
"25 700 LINE",
"25 292 LINE",
"200 292 LINE",
"200 292 LINE",
"200 292 OFFCURVE",
"200 292 OFFCURVE",
"200 292 CURVE",
"233 292 OFFCURVE",
"259 266 OFFCURVE",
"259 234 CURVE",
"259 176 LINE",
"259 143 OFFCURVE",
"232 117 OFFCURVE",
"200 117 CURVE",
"167 117 OFFCURVE",
"142 143 OFFCURVE",
"142 176 CURVE",
"142 234 LINE",
"25 234 LINE",
"25 141 LINE",
"25 74 OFFCURVE",
"70 17 OFFCURVE",
"132 0 CURVE",
"268 0 LINE",
"330 17 OFFCURVE",
"375 74 OFFCURVE",
"375 141 CURVE",
"375 144 OFFCURVE",
"375 269 OFFCURVE",
"375 269 CURVE",
"375 336 OFFCURVE",
"330 392 OFFCURVE",
"268 409 CURVE"
);
}
);
width = 400;
}
);
unicode = 0035;
},
{
glyphname = six;
lastChange = "2020-06-14 13:29:38 +0000";
layers = (
{
layerId = "F308DFDC-97C1-4BE3-8956-0141BA9DEEC1";
paths = (
{
closed = 1;
nodes = (
"25 74 OFFCURVE",
"71 17 OFFCURVE",
"132 0 CURVE",
"269 0 LINE",
"331 17 OFFCURVE",
"375 74 OFFCURVE",
"375 141 CURVE",
"375 150 LINE",
"376 327 LINE",
"376 394 OFFCURVE",
"330 450 OFFCURVE",
"269 467 CURVE",
"220 467 LINE",
"376 700 LINE",
"245 700 LINE",
"50 408 LINE",
"51 408 LINE",
"35 385 OFFCURVE",
"25 357 OFFCURVE",
"25 327 CURVE",
"25 324 OFFCURVE",
"25 141 OFFCURVE",
"25 141 CURVE"
);
},
{
closed = 1;
nodes = (
"259 176 LINE",
"259 143 OFFCURVE",
"233 117 OFFCURVE",
"200 117 CURVE",
"168 117 OFFCURVE",
"142 143 OFFCURVE",
"142 176 CURVE",
"142 291 LINE",
"142 324 OFFCURVE",
"168 350 OFFCURVE",
"201 350 CURVE",
"233 350 OFFCURVE",
"259 324 OFFCURVE",
"259 291 CURVE"
);
}
);
width = 400;
}
);
unicode = 0036;
},
{
glyphname = seven;
lastChange = "2020-06-10 19:15:35 +0000";
layers = (
{
layerId = "F308DFDC-97C1-4BE3-8956-0141BA9DEEC1";
paths = (
{
closed = 1;
nodes = (
"25 583 LINE",
"244 583 LINE",
"25 0 LINE",
"155 0 LINE",
"375 583 LINE",
"375 700 LINE",
"25 700 LINE"
);
}
);
width = 400;
}
);
unicode = 0037;
},
{
glyphname = eight;
lastChange = "2020-06-10 19:15:51 +0000";
layers = (
{
layerId = "F308DFDC-97C1-4BE3-8956-0141BA9DEEC1";
paths = (
{
closed = 1;
nodes = (
"375 627 OFFCURVE",
"330 683 OFFCURVE",
"268 700 CURVE",
"132 700 LINE",
"70 683 OFFCURVE",
"25 627 OFFCURVE",
"25 560 CURVE",
"25 557 OFFCURVE",
"25 431 OFFCURVE",
"25 431 CURVE",
"25 364 OFFCURVE",
"70 308 OFFCURVE",
"132 291 CURVE",
"268 291 LINE",
"330 308 OFFCURVE",
"375 364 OFFCURVE",
"375 431 CURVE",
"375 435 OFFCURVE",
"375 560 OFFCURVE",
"375 560 CURVE"
);
},
{
closed = 1;
nodes = (
"167 408 OFFCURVE",
"142 434 OFFCURVE",
"142 467 CURVE",
"142 524 LINE",
"142 557 OFFCURVE",
"168 583 OFFCURVE",
"200 583 CURVE",
"232 583 OFFCURVE",
"259 557 OFFCURVE",
"259 524 CURVE",
"259 467 LINE",
"259 434 OFFCURVE",
"232 408 OFFCURVE",
"200 408 CURVE"
);
},
{
closed = 1;
nodes = (
"375 336 OFFCURVE",
"330 392 OFFCURVE",
"268 409 CURVE",
"132 409 LINE",
"70 392 OFFCURVE",
"25 336 OFFCURVE",
"25 269 CURVE",
"25 266 OFFCURVE",
"25 141 OFFCURVE",
"25 141 CURVE",
"25 74 OFFCURVE",
"70 17 OFFCURVE",
"132 0 CURVE",
"268 0 LINE",
"330 17 OFFCURVE",
"375 74 OFFCURVE",
"375 141 CURVE",
"375 144 OFFCURVE",
"375 269 OFFCURVE",
"375 269 CURVE"
);
},
{
closed = 1;
nodes = (
"167 117 OFFCURVE",
"142 143 OFFCURVE",
"142 176 CURVE",
"142 233 LINE",
"142 266 OFFCURVE",
"168 292 OFFCURVE",
"200 292 CURVE",
"232 292 OFFCURVE",
"259 266 OFFCURVE",
"259 233 CURVE",
"259 176 LINE",
"259 143 OFFCURVE",
"232 117 OFFCURVE",
"200 117 CURVE"
);
}
);
width = 400;
}
);
unicode = 0038;
},
{
glyphname = nine;
lastChange = "2020-06-14 22:20:59 +0000";
layers = (
{
layerId = "F308DFDC-97C1-4BE3-8956-0141BA9DEEC1";
paths = (
{
closed = 1;
nodes = (
"142 524 LINE",
"142 557 OFFCURVE",
"168 583 OFFCURVE",
"201 583 CURVE",
"233 583 OFFCURVE",
"259 557 OFFCURVE",
"259 524 CURVE",
"259 409 LINE",
"259 376 OFFCURVE",
"233 350 OFFCURVE",
"200 350 CURVE",
"168 350 OFFCURVE",
"142 376 OFFCURVE",
"142 409 CURVE"
);
},
{
closed = 1;
nodes = (
"25 306 OFFCURVE",
"71 250 OFFCURVE",
"132 233 CURVE",
"181 233 LINE",
"26 0 LINE",
"157 0 LINE",
"157 0 OFFCURVE",
"335 269 OFFCURVE",
"350 292 CURVE",
"365 315 OFFCURVE",
"375 343 OFFCURVE",
"375 373 CURVE",
"375 376 OFFCURVE",
"375 559 OFFCURVE",
"375 559 CURVE",
"375 626 OFFCURVE",
"329 683 OFFCURVE",
"268 700 CURVE",
"132 700 LINE",
"71 683 OFFCURVE",
"26 626 OFFCURVE",
"26 559 CURVE",
"25 373 LINE"
);
}
);
width = 400;
}
);
unicode = 0039;
},
{
glyphname = period;
lastChange = "2020-06-10 20:08:54 +0000";
layers = (
{
layerId = "F308DFDC-97C1-4BE3-8956-0141BA9DEEC1";
paths = (
{
closed = 1;
nodes = (
"141 0 LINE",
"141 117 LINE",
"258 117 LINE",
"258 0 LINE"
);
}
);
width = 400;
}
);
unicode = 002E;
},
{
glyphname = comma;
lastChange = "2020-06-14 22:21:39 +0000";
layers = (
{
layerId = "F308DFDC-97C1-4BE3-8956-0141BA9DEEC1";
paths = (
{
closed = 1;
nodes = (
"25 0 LINE",
"25 117 LINE",
"142 117 LINE",
"142 0 LINE"
);
},
{
closed = 1;
nodes = (
"84 0 LINE",
"25 -59 LINE",
"84 -59 LINE",
"142 0 LINE"
);
}
);
width = 400;
}
);
unicode = 002C;
},
{
glyphname = colon;
lastChange = "2020-06-14 22:34:59 +0000";
layers = (
{
layerId = "F308DFDC-97C1-4BE3-8956-0141BA9DEEC1";
paths = (
{
closed = 1;
nodes = (
"27 0 LINE",
"27 117 LINE",
"144 117 LINE",
"144 0 LINE"
);
},
{
closed = 1;
nodes = (
"27 293 LINE",
"27 410 LINE",
"144 410 LINE",
"144 293 LINE"
);
}
);
width = 167;
}
);
unicode = 003A;
},
{
glyphname = semicolon;
lastChange = "2020-06-14 22:34:50 +0000";
layers = (
{
layerId = "F308DFDC-97C1-4BE3-8956-0141BA9DEEC1";
paths = (
{
closed = 1;
nodes = (
"27 293 LINE",
"27 410 LINE",
"144 410 LINE",
"144 293 LINE"
);
},
{
closed = 1;
nodes = (
"25 0 LINE",
"25 117 LINE",
"142 117 LINE",
"142 0 LINE"
);
},
{
closed = 1;
nodes = (
"84 0 LINE",
"25 -59 LINE",
"84 -59 LINE",
"142 0 LINE"
);
}
);
width = 167;
}
);
unicode = 003B;
},
{
glyphname = exclam;
lastChange = "2020-06-10 19:05:48 +0000";
layers = (
{
layerId = "F308DFDC-97C1-4BE3-8956-0141BA9DEEC1";
paths = (
{
closed = 1;
nodes = (
"25 234 LINE",
"142 234 LINE",
"142 700 LINE",
"25 700 LINE"
);
},
{
closed = 1;
nodes = (
"142 0 LINE",
"142 116 LINE",
"25 116 LINE",
"25 0 LINE"
);
}
);
width = 167;
}
);
unicode = 0021;
},
{
glyphname = question;
lastChange = "2020-06-14 21:29:29 +0000";
layers = (
{
layerId = "F308DFDC-97C1-4BE3-8956-0141BA9DEEC1";
paths = (
{
closed = 1;
nodes = (
"375 333 OFFCURVE",
"329 290 OFFCURVE",
"268 273 CURVE",
"172 273 LINE",
"172 180 LINE",
"56 180 LINE",
"56 389 LINE",
"200 389 LINE",
"232 389 OFFCURVE",
"259 416 OFFCURVE",
"259 448 CURVE",
"259 525 LINE",
"259 557 OFFCURVE",
"233 583 OFFCURVE",
"200 583 CURVE",
"170 583 OFFCURVE",
"144 560 OFFCURVE",
"142 530 CURVE",
"142 468 LINE",
"25 468 LINE",
"25 560 LINE",
"25 627 OFFCURVE",
"72 683 OFFCURVE",
"131 700 CURVE",
"268 700 LINE",
"330 683 OFFCURVE",
"375 627 OFFCURVE",
"375 560 CURVE",
"375 400 LINE"
);
},
{
closed = 1;
nodes = (
"172 0 LINE",
"56 0 LINE",
"56 116 LINE",
"172 116 LINE"
);
}
);
width = 400;
}
);
unicode = 003F;
},
{
glyphname = asterisk;
lastChange = "2020-06-14 19:57:17 +0000";
layers = (
{
layerId = "F308DFDC-97C1-4BE3-8956-0141BA9DEEC1";
paths = (
{
closed = 1;
nodes = (
"149 451 LINE",
"98 451 LINE",
"82 500 LINE",
"66 451 LINE",
"15 451 LINE",
"56 421 LINE",
"40 372 LINE",
"82 402 LINE",
"124 372 LINE",
"108 421 LINE"
);
}
);
width = 167;
}
);
unicode = 002A;
},
{
glyphname = numbersign;
lastChange = "2020-06-14 22:36:24 +0000";
layers = (
{
layerId = "F308DFDC-97C1-4BE3-8956-0141BA9DEEC1";
paths = (
{
closed = 1;
nodes = (
"375 379 LINE",
"375 438 LINE",
"288 438 LINE",
"288 525 LINE",
"228 525 LINE",
"228 438 LINE",
"172 438 LINE",
"172 525 LINE",
"112 525 LINE",
"112 438 LINE",
"25 438 LINE",
"25 379 LINE",
"112 379 LINE",
"112 322 LINE",
"25 322 LINE",
"25 263 LINE",
"112 263 LINE",
"112 175 LINE",
"172 175 LINE",
"172 263 LINE",
"228 263 LINE",
"228 175 LINE",
"288 175 LINE",
"288 263 LINE",
"375 263 LINE",
"375 322 LINE",
"288 322 LINE",
"288 379 LINE"
);
},
{
closed = 1;
nodes = (
"228 322 LINE",
"172 322 LINE",
"172 379 LINE",
"228 379 LINE"
);
}
);
width = 400;
}
);
unicode = 0023;
},
{
glyphname = numbersign.001;
lastChange = "2020-06-14 22:36:08 +0000";
layers = (
{
hints = (
{
horizontal = 1;
place = "{263, 59}";
type = Stem;
},
{
horizontal = 1;
place = "{379, 59}";
type = Stem;
},
{
place = "{112, 60}";
type = Stem;
},
{
place = "{228, 60}";
type = Stem;
}
);
layerId = "F308DFDC-97C1-4BE3-8956-0141BA9DEEC1";
paths = (
{
closed = 1;
nodes = (
"347 699 LINE",
"324 0 LINE",
"206 0 LINE",
"231 699 LINE"
);
},
{
closed = 1;
nodes = (
"50 0 LINE",
"74 699 LINE",
"190 699 LINE",
"166 0 LINE"
);
},
{
closed = 1;
nodes = (
"368 174 LINE",
"18 174 LINE",
"22 292 LINE",
"371 292 LINE"
);
},
{
closed = 1;
nodes = (
"30 525 LINE",
"379 525 LINE",
"376 409 LINE",
"25 409 LINE"
);
}
);
width = 400;
}
);
note = numbersign;
},
{
glyphname = slash;
lastChange = "2020-06-14 21:32:22 +0000";
layers = (
{
layerId = "F308DFDC-97C1-4BE3-8956-0141BA9DEEC1";
paths = (
{
closed = 1;
nodes = (
"30 0 LINE",
"257 700 LINE",
"374 700 LINE",
"147 0 LINE"
);
}
);
width = 400;
}
);
unicode = 002F;
},
{
glyphname = backslash;
lastChange = "2020-06-14 21:32:42 +0000";
layers = (
{
layerId = "F308DFDC-97C1-4BE3-8956-0141BA9DEEC1";
paths = (
{
closed = 1;
nodes = (
"30 700 LINE",
"147 700 LINE",
"374 0 LINE",
"257 0 LINE"
);
}
);
width = 400;
}
);
unicode = 005C;
},
{
glyphname = parenleft;
lastChange = "2020-06-14 11:22:56 +0000";
layers = (
{
layerId = "F308DFDC-97C1-4BE3-8956-0141BA9DEEC1";
paths = (
{
closed = 1;
nodes = (
"255 117 OFFCURVE",
"229 143 OFFCURVE",
"229 175 CURVE",
"229 524 LINE",
"229 557 OFFCURVE",
"255 583 OFFCURVE",
"288 583 CURVE",
"288 700 LINE",
"218 700 LINE",
"157 682 OFFCURVE",
"113 626 OFFCURVE",
"113 560 CURVE",
"113 140 LINE",
"113 73 OFFCURVE",
"158 17 OFFCURVE",
"220 0 CURVE",
"288 0 LINE",
"288 117 LINE"
);
}
);
width = 400;
}
);
unicode = 0028;
},
{
glyphname = parenright;
lastChange = "2020-06-14 11:23:10 +0000";
layers = (
{
layerId = "F308DFDC-97C1-4BE3-8956-0141BA9DEEC1";
paths = (
{
closed = 1;
nodes = (
"112 0 LINE",
"180 0 LINE",
"242 17 OFFCURVE",
"287 73 OFFCURVE",
"287 140 CURVE",
"287 560 LINE",
"287 626 OFFCURVE",
"243 682 OFFCURVE",
"182 700 CURVE",
"112 700 LINE",
"112 583 LINE",
"145 583 OFFCURVE",
"171 557 OFFCURVE",
"171 524 CURVE",
"171 175 LINE",
"171 143 OFFCURVE",
"145 117 OFFCURVE",
"112 117 CURVE"
);
}
);
width = 400;
}
);
unicode = 0029;
},
{
glyphname = braceleft;
lastChange = "2020-06-14 22:15:13 +0000";
layers = (
{
layerId = "F308DFDC-97C1-4BE3-8956-0141BA9DEEC1";
paths = (
{
closed = 1;
nodes = (
"125 431 LINE",
"125 400 OFFCURVE",
"116 372 OFFCURVE",
"100 349 CURVE",
"115 326 OFFCURVE",
"125 298 OFFCURVE",
"125 268 CURVE",
"125 139 LINE",
"125 72 OFFCURVE",
"170 16 OFFCURVE",
"232 -1 CURVE",
"300 -1 LINE",
"300 116 LINE",
"267 116 OFFCURVE",
"241 142 OFFCURVE",
"241 174 CURVE",
"241 523 LINE",
"241 556 OFFCURVE",
"267 582 OFFCURVE",
"300 582 CURVE",
"300 699 LINE",
"230 699 LINE",
"169 681 OFFCURVE",
"125 625 OFFCURVE",
"125 559 CURVE"
);
}
);
width = 400;
}
);
unicode = 007B;
},
{
glyphname = braceright;
lastChange = "2020-06-14 22:16:04 +0000";
layers = (
{
layerId = "F308DFDC-97C1-4BE3-8956-0141BA9DEEC1";
paths = (
{
closed = 1;
nodes = (
"275 625 OFFCURVE",
"231 681 OFFCURVE",
"170 699 CURVE",
"100 699 LINE",
"100 582 LINE",
"133 582 OFFCURVE",
"159 556 OFFCURVE",
"159 523 CURVE",
"159 174 LINE",
"159 142 OFFCURVE",
"133 116 OFFCURVE",
"100 116 CURVE",
"100 -1 LINE",
"168 -1 LINE",
"230 16 OFFCURVE",
"275 72 OFFCURVE",
"275 139 CURVE",
"275 268 LINE",
"275 298 OFFCURVE",
"285 326 OFFCURVE",
"300 349 CURVE",
"284 372 OFFCURVE",
"275 400 OFFCURVE",
"275 431 CURVE",
"275 559 LINE"
);
}
);
width = 400;
}
);
unicode = 007D;
},
{
glyphname = bracketleft;
lastChange = "2020-06-14 13:14:06 +0000";
layers = (
{
layerId = "F308DFDC-97C1-4BE3-8956-0141BA9DEEC1";
paths = (
{
closed = 1;
nodes = (
"288 700 LINE",
"288 583 LINE",
"255 583 OFFCURVE",
"228 583 OFFCURVE",
"228 583 CURVE",
"228 117 LINE",
"288 117 LINE",
"288 0 LINE",
"113 0 LINE",
"113 700 LINE"
);
}
);
width = 400;
}
);
unicode = 005B;
},
{
glyphname = bracketright;
lastChange = "2020-06-14 13:15:16 +0000";
layers = (
{
layerId = "F308DFDC-97C1-4BE3-8956-0141BA9DEEC1";
paths = (
{
closed = 1;
nodes = (
"288 0 LINE",
"113 0 LINE",
"113 117 LINE",
"173 117 LINE",
"173 583 LINE",
"173 583 OFFCURVE",
"146 583 OFFCURVE",
"113 583 CURVE",
"113 700 LINE",
"288 700 LINE"
);
}
);
width = 400;
}
);
unicode = 005D;
},
{
glyphname = hyphen;
lastChange = "2020-06-14 22:09:28 +0000";
layers = (
{
layerId = "F308DFDC-97C1-4BE3-8956-0141BA9DEEC1";
paths = (
{
closed = 1;
nodes = (
"45 408 LINE",
"355 408 LINE",
"355 292 LINE",
"45 292 LINE"
);
}
);
width = 400;
}
);
unicode = 002D;
},
{
glyphname = endash;
lastChange = "2020-06-14 22:09:49 +0000";
layers = (
{
layerId = "F308DFDC-97C1-4BE3-8956-0141BA9DEEC1";
paths = (
{
closed = 1;
nodes = (
"25 408 LINE",
"375 408 LINE",
"375 292 LINE",
"25 292 LINE"
);
}
);
width = 400;
}
);
unicode = 2013;
},
{
glyphname = emdash;
lastChange = "2020-06-14 22:10:11 +0000";
layers = (
{
layerId = "F308DFDC-97C1-4BE3-8956-0141BA9DEEC1";
paths = (
{
closed = 1;
nodes = (
"0 408 LINE",
"400 408 LINE",
"400 292 LINE",
"0 292 LINE"
);
}
);
width = 400;
}
);
unicode = 2014;
},
{
glyphname = underscore;
lastChange = "2020-06-14 22:48:29 +0000";
layers = (
{
layerId = "F308DFDC-97C1-4BE3-8956-0141BA9DEEC1";
paths = (
{
closed = 1;
nodes = (
"0 -84 LINE",
"400 -84 LINE",
"400 -200 LINE",
"0 -200 LINE"
);
}
);
width = 400;
}
);
unicode = 005F;
},
{
glyphname = quoteleft;
lastChange = "2020-06-14 16:50:44 +0000";
layers = (
{
layerId = "F308DFDC-97C1-4BE3-8956-0141BA9DEEC1";
paths = (
{
closed = 1;
nodes = (
"24 700 LINE",
"24 583 LINE",
"82 525 LINE",
"141 525 LINE",
"82 583 LINE",
"141 583 LINE",
"141 700 LINE"
);
}
);
width = 167;
}
);
unicode = 2018;
},
{
glyphname = quoteright;
lastChange = "2020-06-14 16:51:12 +0000";
layers = (
{
layerId = "F308DFDC-97C1-4BE3-8956-0141BA9DEEC1";
paths = (
{
closed = 1;
nodes = (
"25 583 LINE",
"84 583 LINE",
"25 525 LINE",
"84 525 LINE",
"142 583 LINE",
"142 700 LINE",
"25 700 LINE"
);
}
);
width = 167;
}
);
unicode = 2019;
},
{
glyphname = guilsinglleft;
lastChange = "2020-06-14 22:08:11 +0000";
layers = (
{
layerId = "F308DFDC-97C1-4BE3-8956-0141BA9DEEC1";
paths = (
{
closed = 1;
nodes = (
"62 173 LINE",
"205 0 LINE",
"339 0 LINE",
"196 173 LINE",
"339 350 LINE",
"205 350 LINE"
);
}
);
width = 400;
}
);
unicode = 2039;
},
{
glyphname = guilsinglright;
lastChange = "2020-06-14 22:07:08 +0000";
layers = (
{
layerId = "F308DFDC-97C1-4BE3-8956-0141BA9DEEC1";
paths = (
{
closed = 1;
nodes = (
"62 350 LINE",
"205 173 LINE",
"62 0 LINE",
"196 0 LINE",
"339 173 LINE",
"196 350 LINE"
);
}
);
width = 400;
}
);
unicode = 203A;
},
{
glyphname = .notdef;
lastChange = "2020-06-14 22:28:13 +0000";
layers = (
{
hints = (
{
horizontal = 1;
place = "{-200, 69}";
type = Stem;
},
{
horizontal = 1;
place = "{-98, 47}";
type = Stem;
},
{
horizontal = 1;
place = "{-18, 23}";
type = Stem;
},
{
horizontal = 1;
place = "{38, 47}";
type = Stem;
},
{
horizontal = 1;
place = "{118, 60}";
type = Stem;
},
{
horizontal = 1;
place = "{211, 24}";
type = Stem;
},
{
horizontal = 1;
place = "{291, 22}";
type = Stem;
},
{
horizontal = 1;
place = "{347, 23}";
type = Stem;
},
{
horizontal = 1;
place = "{403, 37}";
type = Stem;
},
{
horizontal = 1;
place = "{473, 27}";
type = Stem;
},
{
horizontal = 1;
place = "{534, 36}";
type = Stem;
},
{
horizontal = 1;
place = "{604, 26}";
type = Stem;
},
{
horizontal = 1;
place = "{663, 37}";
type = Stem;
},
{
horizontal = 1;
place = "{733, 67}";
type = Stem;
},
{
place = "{93, 74}";
type = Stem;
},
{
place = "{200, 33}";
type = Stem;
},
{
place = "{267, 33}";
type = Stem;
},
{
place = "{333, 77}";
type = Stem;
},
{
place = "{93, 75}";
type = Stem;
},
{
place = "{93, 140}";
type = Stem;
},
{
horizontal = 1;
place = "{413, 27}";
type = Stem;
},
{
place = "{267, 143}";
type = Stem;
},
{
place = "{93, 207}";
type = Stem;
},
{
place = "{200, 210}";
type = Stem;
}
);
layerId = "F308DFDC-97C1-4BE3-8956-0141BA9DEEC1";
paths = (
{
closed = 1;
nodes = (
"410 800 LINE",
"93 800 LINE",
"93 -200 LINE",
"410 -200 LINE"
);
},
{
closed = 1;
nodes = (
"333 733 LINE",
"333 700 LINE",
"267 700 LINE",
"267 663 LINE",
"333 663 LINE",
"333 630 LINE",
"167 630 LINE",
"167 663 LINE",
"233 663 LINE",
"233 700 LINE",
"168 700 LINE",
"168 733 LINE"
);
},
{
closed = 1;
nodes = (
"267 604 LINE",
"267 534 LINE",
"333 534 LINE",
"333 500 LINE",
"167 500 LINE",
"167 604 LINE"
);
},
{
closed = 1;
nodes = (
"233 570 LINE",
"200 570 LINE",
"200 534 LINE",
"233 534 LINE"
);
},
{
closed = 1;
nodes = (
"333 473 LINE",
"333 440 LINE",
"267 440 LINE",
"267 370 LINE",
"167 370 LINE",
"167 403 LINE",
"233 403 LINE",
"233 440 LINE",
"167 440 LINE",
"167 473 LINE"
);
},
{
closed = 1;
nodes = (
"333 413 LINE",
"333 313 LINE",
"167 313 LINE",
"167 347 LINE",
"300 347 LINE",
"300 413 LINE"
);
},
{
closed = 1;
nodes = (
"333 291 LINE",
"333 178 LINE",
"167 178 LINE",
"167 291 LINE",
"200 291 LINE",
"200 211 LINE",
"300 211 LINE",
"300 258 LINE",
"267 258 LINE",
"267 235 LINE",
"233 235 LINE",
"233 291 LINE"
);
},
{
closed = 1;
nodes = (
"333 118 LINE",
"333 5 LINE",
"167 5 LINE",
"167 118 LINE"
);
},
{
closed = 1;
nodes = (
"300 85 LINE",
"200 85 LINE",
"200 38 LINE",
"300 38 LINE"
);
},
{
closed = 1;
nodes = (
"333 -18 LINE",
"333 -51 LINE",
"301 -51 LINE",
"231 -98 LINE",
"333 -98 LINE",
"333 -131 LINE",
"167 -131 LINE",
"167 -98 LINE",
"237 -51 LINE",
"167 -51 LINE",
"167 -18 LINE"
);
}
);
width = 500;
}
);
note = .notdef;
},
{
glyphname = plus;
lastChange = "2020-06-10 19:27:12 +0000";
layers = (
{
layerId = "F308DFDC-97C1-4BE3-8956-0141BA9DEEC1";
paths = (
{
closed = 1;
nodes = (
"25 292 LINE",
"25 408 LINE",
"375 408 LINE",
"375 292 LINE"
);
},
{
closed = 1;
nodes = (
"142 525 LINE",
"258 525 LINE",
"258 175 LINE",
"142 175 LINE"
);
}
);
width = 400;
}
);
unicode = 002B;
},
{
glyphname = equal;
lastChange = "2020-06-14 20:05:01 +0000";
layers = (
{
layerId = "F308DFDC-97C1-4BE3-8956-0141BA9DEEC1";
paths = (
{
closed = 1;
nodes = (
"25 284 LINE",
"375 284 LINE",
"375 342 LINE",
"25 342 LINE"
);
},
{
closed = 1;
nodes = (
"375 196 LINE",
"375 255 LINE",
"25 255 LINE",
"25 196 LINE"
);
},
{
closed = 1;
nodes = (
"110 421 LINE",
"79 421 LINE",
"69 453 LINE",
"58 421 LINE",
"25 421 LINE",
"52 401 LINE",
"42 369 LINE",
"69 389 LINE",
"96 369 LINE",
"85 401 LINE"
);
},
{
closed = 1;
nodes = (
"244 421 LINE",
"210 421 LINE",
"200 453 LINE",
"189 421 LINE",
"156 421 LINE",
"183 401 LINE",
"173 369 LINE",
"200 389 LINE",
"227 369 LINE",
"216 401 LINE"
);
},
{
closed = 1;
nodes = (
"375 421 LINE",
"341 421 LINE",
"331 453 LINE",
"320 421 LINE",
"287 421 LINE",
"314 401 LINE",
"304 369 LINE",
"331 389 LINE",
"358 369 LINE",
"347 401 LINE"
);
}
);
width = 400;
}
);
unicode = 003D;
},
{
glyphname = percent;
lastChange = "2020-06-14 22:00:09 +0000";
layers = (
{
layerId = "F308DFDC-97C1-4BE3-8956-0141BA9DEEC1";
paths = (
{
closed = 1;
nodes = (
"30 0 LINE",
"257 700 LINE",
"374 700 LINE",
"147 0 LINE"
);
},
{
closed = 1;
nodes = (
"258 0 LINE",
"374 0 LINE",
"374 116 LINE",
"258 116 LINE"
);
},
{
closed = 1;
nodes = (
"30 584 LINE",
"146 584 LINE",
"146 700 LINE",
"30 700 LINE"
);
}
);
width = 400;
}
);
unicode = 0025;
},
{
glyphname = upArrow;
lastChange = "2020-06-14 17:48:31 +0000";
layers = (
{
layerId = "F308DFDC-97C1-4BE3-8956-0141BA9DEEC1";
paths = (
{
closed = 1;
nodes = (
"346 281 LINE",
"258 339 LINE",
"258 159 LINE",
"141 159 LINE",
"141 339 LINE",
"54 281 LINE",
"54 412 LINE",
"200 509 LINE",
"346 412 LINE"
);
}
);
width = 400;
}
);
unicode = 2191;
},
{
glyphname = rightArrow;
lastChange = "2020-06-14 17:47:49 +0000";
layers = (
{
layerId = "F308DFDC-97C1-4BE3-8956-0141BA9DEEC1";
paths = (
{
closed = 1;
nodes = (
"253 500 LINE",
"195 412 LINE",
"375 412 LINE",
"375 295 LINE",
"195 295 LINE",
"253 208 LINE",
"122 208 LINE",
"25 354 LINE",
"122 500 LINE"
);
}
);
width = 400;
}
);
unicode = 2192;
},
{
glyphname = downArrow;
lastChange = "2020-06-14 19:00:21 +0000";
layers = (
{
layerId = "F308DFDC-97C1-4BE3-8956-0141BA9DEEC1";
paths = (
{
closed = 1;
nodes = (
"200 150 LINE",
"54 247 LINE",
"54 378 LINE",
"141 320 LINE",
"141 500 LINE",
"258 500 LINE",
"258 320 LINE",
"346 378 LINE",
"346 247 LINE"
);
}
);
width = 400;
}
);
unicode = 2193;
},
{
glyphname = leftArrow;
lastChange = "2020-06-14 17:47:13 +0000";
layers = (
{
layerId = "F308DFDC-97C1-4BE3-8956-0141BA9DEEC1";
paths = (
{
closed = 1;
nodes = (
"253 500 LINE",
"195 412 LINE",
"375 412 LINE",
"375 295 LINE",
"195 295 LINE",
"253 208 LINE",
"122 208 LINE",
"25 354 LINE",
"122 500 LINE"
);
}
);
width = 400;
}
);
unicode = 2190;
},
{
glyphname = at;
lastChange = "2020-06-14 22:28:20 +0000";
layers = (
{
layerId = "F308DFDC-97C1-4BE3-8956-0141BA9DEEC1";
paths = (
{
closed = 1;
nodes = (
"8 0 LINE",
"37 0 LINE",
"37 700 LINE",
"8 700 LINE"
);
},
{
closed = 1;
nodes = (
"67 0 LINE",
"96 0 LINE",
"96 700 LINE",
"67 700 LINE"
);
},
{
closed = 1;
nodes = (
"126 0 LINE",
"155 0 LINE",
"155 700 LINE",
"126 700 LINE"
);
},
{
closed = 1;
nodes = (
"185 700 LINE",
"185 0 LINE",
"215 0 LINE",
"215 364 LINE",
"244 364 LINE",
"244 0 LINE",
"274 0 LINE",
"274 364 LINE",
"303 364 LINE",
"303 0 LINE",
"333 0 LINE",
"333 364 LINE",
"362 364 LINE",
"362 0 LINE",
"392 0 LINE",
"392 700 LINE"
);
},
{
closed = 1;
nodes = (
"192 687 LINE",
"202 684 LINE",
"207 692 LINE",
"207 682 LINE",
"217 679 LINE",
"207 676 LINE",
"207 666 LINE",
"202 674 LINE",
"192 671 LINE",
"198 679 LINE"
);
},
{
closed = 1;
nodes = (
"234 687 LINE",
"244 684 LINE",
"249 692 LINE",
"249 682 LINE",
"259 679 LINE",
"249 676 LINE",
"249 666 LINE",
"244 674 LINE",
"234 671 LINE",
"240 679 LINE"
);
},
{
closed = 1;
nodes = (
"276 687 LINE",
"286 684 LINE",
"291 692 LINE",
"291 682 LINE",
"301 679 LINE",
"291 676 LINE",
"291 666 LINE",
"286 674 LINE",
"276 671 LINE",
"282 679 LINE"
);
},
{
closed = 1;
nodes = (
"318 687 LINE",
"328 684 LINE",
"333 692 LINE",
"333 682 LINE",
"343 679 LINE",
"333 676 LINE",
"333 666 LINE",
"328 674 LINE",
"318 671 LINE",
"324 679 LINE"
);
},
{
closed = 1;
nodes = (
"375 676 LINE",
"375 666 LINE",
"370 674 LINE",
"360 671 LINE",
"366 679 LINE",
"360 687 LINE",
"370 684 LINE",
"375 692 LINE",
"375 682 LINE",
"385 679 LINE"
);
},
{
closed = 1;
nodes = (
"227 662 LINE",
"227 652 LINE",
"237 649 LINE",
"227 646 LINE",
"227 636 LINE",
"221 644 LINE",
"212 641 LINE",
"218 649 LINE",
"212 657 LINE",
"221 654 LINE"
);
},
{
closed = 1;
nodes = (
"269 662 LINE",
"269 652 LINE",
"279 649 LINE",
"269 646 LINE",
"269 636 LINE",
"264 644 LINE",
"254 641 LINE",
"260 649 LINE",
"254 657 LINE",
"264 654 LINE"
);
},
{
closed = 1;
nodes = (
"311 662 LINE",
"311 652 LINE",
"321 649 LINE",
"311 646 LINE",
"311 636 LINE",
"306 644 LINE",
"296 641 LINE",
"302 649 LINE",
"296 657 LINE",
"306 654 LINE"
);
},
{
closed = 1;
nodes = (
"353 662 LINE",
"353 652 LINE",
"363 649 LINE",
"353 646 LINE",
"353 636 LINE",
"348 644 LINE",
"338 641 LINE",
"344 649 LINE",
"338 657 LINE",
"348 654 LINE"
);
},
{
closed = 1;
nodes = (
"192 628 LINE",
"202 625 LINE",
"207 633 LINE",
"207 623 LINE",
"217 620 LINE",
"207 617 LINE",
"207 607 LINE",
"202 615 LINE",
"192 612 LINE",
"198 620 LINE"
);
},
{
closed = 1;
nodes = (
"234 628 LINE",
"244 625 LINE",
"249 633 LINE",
"249 623 LINE",
"259 620 LINE",
"249 617 LINE",
"249 607 LINE",
"244 615 LINE",
"234 612 LINE",
"240 620 LINE"
);
},
{
closed = 1;
nodes = (
"276 628 LINE",
"286 625 LINE",
"291 633 LINE",
"291 623 LINE",
"301 620 LINE",
"291 617 LINE",
"291 607 LINE",
"286 615 LINE",
"276 612 LINE",
"282 620 LINE"
);
},
{
closed = 1;
nodes = (
"318 628 LINE",
"328 625 LINE",
"333 633 LINE",
"333 623 LINE",
"343 620 LINE",
"333 617 LINE",
"333 607 LINE",
"328 615 LINE",
"318 612 LINE",
"324 620 LINE"
);
},
{
closed = 1;
nodes = (
"375 617 LINE",
"375 607 LINE",
"370 615 LINE",
"360 612 LINE",
"366 620 LINE",
"360 628 LINE",
"370 625 LINE",
"375 633 LINE",
"375 623 LINE",
"385 620 LINE"
);
},
{
closed = 1;
nodes = (
"212 599 LINE",
"221 596 LINE",
"227 604 LINE",
"227 594 LINE",
"237 591 LINE",
"227 588 LINE",
"227 578 LINE",
"221 586 LINE",
"212 583 LINE",
"218 591 LINE"
);
},
{
closed = 1;
nodes = (
"279 591 LINE",
"269 588 LINE",
"269 578 LINE",
"264 586 LINE",
"254 583 LINE",
"260 591 LINE",
"254 599 LINE",
"264 596 LINE",
"269 604 LINE",
"269 594 LINE"
);
},
{
closed = 1;
nodes = (
"321 591 LINE",
"311 588 LINE",
"311 578 LINE",
"306 586 LINE",
"296 583 LINE",
"302 591 LINE",
"296 599 LINE",
"306 596 LINE",
"311 604 LINE",
"311 594 LINE"
);
},
{
closed = 1;
nodes = (
"353 578 LINE",
"348 586 LINE",
"338 583 LINE",
"344 591 LINE",
"338 599 LINE",
"348 596 LINE",
"353 604 LINE",
"353 594 LINE",
"363 591 LINE",
"353 588 LINE"
);
},
{
closed = 1;
nodes = (
"192 569 LINE",
"202 566 LINE",
"207 574 LINE",
"207 564 LINE",
"217 561 LINE",
"207 558 LINE",
"207 548 LINE",
"202 556 LINE",
"192 553 LINE",
"198 561 LINE"
);
},
{
closed = 1;
nodes = (
"234 569 LINE",
"244 566 LINE",
"249 574 LINE",
"249 564 LINE",
"259 561 LINE",
"249 558 LINE",
"249 548 LINE",
"244 556 LINE",
"234 553 LINE",
"240 561 LINE"
);
},
{
closed = 1;
nodes = (
"276 569 LINE",
"286 566 LINE",
"291 574 LINE",
"291 564 LINE",
"301 561 LINE",
"291 558 LINE",
"291 548 LINE",
"286 556 LINE",
"276 553 LINE",
"282 561 LINE"
);
},
{
closed = 1;
nodes = (
"333 548 LINE",
"328 556 LINE",
"318 553 LINE",
"324 561 LINE",
"318 569 LINE",
"328 566 LINE",
"333 574 LINE",
"333 564 LINE",
"343 561 LINE",
"333 558 LINE"
);
},
{
closed = 1;
nodes = (
"375 558 LINE",
"375 548 LINE",
"370 556 LINE",
"360 553 LINE",
"366 561 LINE",
"360 569 LINE",
"370 566 LINE",
"375 574 LINE",
"375 564 LINE",
"385 561 LINE"
);
},
{
closed = 1;
nodes = (
"212 540 LINE",
"221 537 LINE",
"227 545 LINE",
"227 535 LINE",
"237 532 LINE",
"227 529 LINE",
"227 519 LINE",
"221 527 LINE",
"212 524 LINE",
"218 532 LINE"
);
},
{
closed = 1;
nodes = (
"254 524 LINE",
"260 532 LINE",
"254 540 LINE",
"264 537 LINE",
"269 545 LINE",
"269 535 LINE",
"279 532 LINE",
"269 529 LINE",
"269 519 LINE",
"264 527 LINE"
);
},
{
closed = 1;
nodes = (
"296 524 LINE",
"302 532 LINE",
"296 540 LINE",
"306 537 LINE",
"311 545 LINE",
"311 535 LINE",
"321 532 LINE",
"311 529 LINE",
"311 519 LINE",
"306 527 LINE"
);
},
{
closed = 1;
nodes = (
"353 519 LINE",
"348 527 LINE",
"338 524 LINE",
"344 532 LINE",
"338 540 LINE",
"348 537 LINE",
"353 545 LINE",
"353 535 LINE",
"363 532 LINE",
"353 529 LINE"
);
},
{
closed = 1;
nodes = (
"192 511 LINE",
"202 508 LINE",
"207 516 LINE",
"207 506 LINE",
"217 503 LINE",
"207 500 LINE",
"207 490 LINE",
"202 498 LINE",
"192 495 LINE",
"198 503 LINE"
);
},
{
closed = 1;
nodes = (
"234 511 LINE",
"244 508 LINE",
"249 516 LINE",
"249 506 LINE",
"259 503 LINE",
"249 500 LINE",
"249 490 LINE",
"244 498 LINE",
"234 495 LINE",
"240 503 LINE"
);
},
{
closed = 1;
nodes = (
"276 511 LINE",
"286 508 LINE",
"291 516 LINE",
"291 506 LINE",
"301 503 LINE",
"291 500 LINE",
"291 490 LINE",
"286 498 LINE",
"276 495 LINE",
"282 503 LINE"
);
},
{
closed = 1;
nodes = (
"318 511 LINE",
"328 508 LINE",
"333 516 LINE",
"333 506 LINE",
"343 503 LINE",
"333 500 LINE",
"333 490 LINE",
"328 498 LINE",
"318 495 LINE",
"324 503 LINE"
);
},
{
closed = 1;
nodes = (
"375 500 LINE",
"375 490 LINE",
"370 498 LINE",
"360 495 LINE",
"366 503 LINE",
"360 511 LINE",
"370 508 LINE",
"375 516 LINE",
"375 506 LINE",
"385 503 LINE"
);
},
{
closed = 1;
nodes = (
"212 481 LINE",
"221 478 LINE",
"227 486 LINE",
"227 476 LINE",
"237 473 LINE",
"227 470 LINE",
"227 460 LINE",
"221 468 LINE",
"212 465 LINE",
"218 473 LINE"
);
},
{
closed = 1;
nodes = (
"254 465 LINE",
"260 473 LINE",
"254 481 LINE",
"264 478 LINE",
"269 486 LINE",
"269 476 LINE",
"279 473 LINE",
"269 470 LINE",
"269 460 LINE",
"264 468 LINE"
);
},
{
closed = 1;
nodes = (
"296 465 LINE",
"302 473 LINE",
"296 481 LINE",
"306 478 LINE",
"311 486 LINE",
"311 476 LINE",
"321 473 LINE",
"311 470 LINE",
"311 460 LINE",
"306 468 LINE"
);
},
{
closed = 1;
nodes = (
"338 465 LINE",
"344 473 LINE",
"338 481 LINE",
"348 478 LINE",
"353 486 LINE",
"353 476 LINE",
"363 473 LINE",
"353 470 LINE",
"353 460 LINE",
"348 468 LINE"
);
},
{
closed = 1;
nodes = (
"192 452 LINE",
"202 449 LINE",
"207 457 LINE",
"207 447 LINE",
"217 444 LINE",
"207 441 LINE",
"207 431 LINE",
"202 439 LINE",
"192 436 LINE",
"198 444 LINE"
);
},
{
closed = 1;
nodes = (
"234 452 LINE",
"244 449 LINE",
"249 457 LINE",
"249 447 LINE",
"259 444 LINE",
"249 441 LINE",
"249 431 LINE",
"244 439 LINE",
"234 436 LINE",
"240 444 LINE"
);
},
{
closed = 1;
nodes = (
"276 452 LINE",
"286 449 LINE",
"291 457 LINE",
"291 447 LINE",
"301 444 LINE",
"291 441 LINE",
"291 431 LINE",
"286 439 LINE",
"276 436 LINE",
"282 444 LINE"
);
},
{
closed = 1;
nodes = (
"318 452 LINE",
"328 449 LINE",
"333 457 LINE",
"333 447 LINE",
"343 444 LINE",
"333 441 LINE",
"333 431 LINE",
"328 439 LINE",
"318 436 LINE",
"324 444 LINE"
);
},
{
closed = 1;
nodes = (
"375 441 LINE",
"375 431 LINE",
"370 439 LINE",
"360 436 LINE",
"366 444 LINE",
"360 452 LINE",
"370 449 LINE",
"375 457 LINE",
"375 447 LINE",
"385 444 LINE"
);
},
{
closed = 1;
nodes = (
"227 402 LINE",
"221 410 LINE",
"212 407 LINE",
"218 415 LINE",
"212 423 LINE",
"221 420 LINE",
"227 428 LINE",
"227 418 LINE",
"237 415 LINE",
"227 412 LINE"
);
},
{
closed = 1;
nodes = (
"269 412 LINE",
"269 402 LINE",
"264 410 LINE",
"254 407 LINE",
"260 415 LINE",
"254 423 LINE",
"264 420 LINE",
"269 428 LINE",
"269 418 LINE",
"279 415 LINE"
);
},
{
closed = 1;
nodes = (
"311 402 LINE",
"306 410 LINE",
"296 407 LINE",
"302 415 LINE",
"296 423 LINE",
"306 420 LINE",
"311 428 LINE",
"311 418 LINE",
"321 415 LINE",
"311 412 LINE"
);
},
{
closed = 1;
nodes = (
"353 402 LINE",
"348 410 LINE",
"338 407 LINE",
"344 415 LINE",
"338 423 LINE",
"348 420 LINE",
"353 428 LINE",
"353 418 LINE",
"363 415 LINE",
"353 412 LINE"
);
},
{
closed = 1;
nodes = (
"207 382 LINE",
"207 373 LINE",
"202 380 LINE",
"192 377 LINE",
"198 385 LINE",
"192 393 LINE",
"202 390 LINE",
"207 398 LINE",
"207 388 LINE",
"217 385 LINE"
);
},
{
closed = 1;
nodes = (
"249 382 LINE",
"249 373 LINE",
"244 380 LINE",
"234 377 LINE",
"240 385 LINE",
"234 393 LINE",
"244 390 LINE",
"249 398 LINE",
"249 388 LINE",
"259 385 LINE"
);
},
{
closed = 1;
nodes = (
"291 382 LINE",
"291 373 LINE",
"286 380 LINE",
"276 377 LINE",
"282 385 LINE",
"276 393 LINE",
"286 390 LINE",
"291 398 LINE",
"291 388 LINE",
"301 385 LINE"
);
},
{
closed = 1;
nodes = (
"333 382 LINE",
"333 373 LINE",
"328 380 LINE",
"318 377 LINE",
"324 385 LINE",
"318 393 LINE",
"328 390 LINE",
"333 398 LINE",
"333 388 LINE",
"343 385 LINE"
);
},
{
closed = 1;
nodes = (
"375 382 LINE",
"375 373 LINE",
"370 380 LINE",
"360 377 LINE",
"366 385 LINE",
"360 393 LINE",
"370 390 LINE",
"375 398 LINE",
"375 388 LINE",
"385 385 LINE"
);
}
);
width = 400;
}
);
note = at;
unicode = 0040;
},
{
glyphname = bar;
lastChange = "2020-06-14 21:35:29 +0000";
layers = (
{
layerId = "F308DFDC-97C1-4BE3-8956-0141BA9DEEC1";
paths = (
{
closed = 1;
nodes = (
"142 0 LINE",
"142 700 LINE",
"258 700 LINE",
"258 0 LINE"
);
}
);
width = 400;
}
);
unicode = 007C;
},
{
glyphname = Exclamation;
lastChange = "2020-06-14 19:27:59 +0000";
layers = (
{
layerId = "F308DFDC-97C1-4BE3-8956-0141BA9DEEC1";
paths = (
{
closed = 1;
nodes = (
"25 234 LINE",
"142 234 LINE",
"142 700 LINE",
"25 700 LINE"
);
},
{
closed = 1;
nodes = (
"142 0 LINE",
"142 116 LINE",
"25 116 LINE",
"25 0 LINE"
);
}
